PathFileType	4	(X/Y/Z)	RBDS017\RBDS017runT25.trc
DataRate	CameraRate	NumFrames	NumMarkers	Units	OrigDataRate	OrigDataStartFrame	OrigNumFrames
150.000000	150.000000	6	33	mm	150.000000	1687	4500
Frame#	Time	L.ASIS			L.Heel.Bottom			L.Heel.Lateral			L.Heel.Top			L.Iliac.Crest			L.MT1			L.MT5			L.PSIS			L.Shank.Bottom.Lateral			L.Shank.Bottom.Medial			L.Shank.Top.Lateral			L.Shank.Top.Medial			L.Thigh.Bottom.Lateral			L.Thigh.Bottom.Medial			L.Thigh.Top.Lateral			L.Thigh.Top.Medial			R.ASIS			R.ASY			R.Heel.Bottom			R.Heel.Lateral			R.Heel.Top			R.Iliac.Crest			R.MT1			R.MT5			R.PSIS			R.Shank.Bottom.Lateral			R.Shank.Bottom.Medial			R.Shank.Top.Lateral			R.Shank.Top.Medial			R.Thigh.Bottom.Lateral			R.Thigh.Bottom.Medial			R.Thigh.Top.Lateral			R.Thigh.Top.Medial			
		X1	Y1	Z1	X2	Y2	Z2	X3	Y3	Z3	X4	Y4	Z4	X5	Y5	Z5	X6	Y6	Z6	X7	Y7	Z7	X8	Y8	Z8	X9	Y9	Z9	X10	Y10	Z10	X11	Y11	Z11	X12	Y12	Z12	X13	Y13	Z13	X14	Y14	Z14	X15	Y15	Z15	X16	Y16	Z16	X17	Y17	Z17	X18	Y18	Z18	X19	Y19	Z19	X20	Y20	Z20	X21	Y21	Z21	X22	Y22	Z22	X23	Y23	Z23	X24	Y24	Z24	X25	Y25	Z25	X26	Y26	Z26	X27	Y27	Z27	X28	Y28	Z28	X29	Y29	Z29	X30	Y30	Z30	X31	Y31	Z31	X32	Y32	Z32	X33	Y33	Z33	

1688	11.24666666666667	2162.401550553953	1050.432963926215	857.880933921721	1700.531431186648	110.4234402794885	950.1278499918582	1724.90325955911	116.1674762688016	911.2031802249777	1723.398026730809	149.4233803443139	946.7474994824461	2110.626555345325	1150.068902039627	825.0748205681887	1912.799039465819	50.55947362434775	981.0953458200707	1867.699129873289	42.39583567101965	874.5921541378956	1996.945397293149	1132.11904340977	952.9529240483593	1834.801444647758	233.6634635555387	884.4202740203882	1797.041103636653	255.3899942732207	918.4910828235484	1862.628456661381	307.610481436267	868.909796551736	1825.414378826044	329.5056415266786	901.245396302246	2039.773657292038	671.4032111288179	833.6034202135938	1976.45473842559	672.5007935186263	868.957467593143	2032.009713284461	780.9819917368643	822.9938868671226	1974.316651722199	782.6358416330262	859.6343223278535	2165.518960896513	1050.429730193245	1139.972647872374	2016.680060689333	162.2587706740312	1105.56134479678	1856.998494246495	285.3741319973677	1062.357000334816	1880.066229467618	279.7278890652354	1108.105433584895	1898.692132311422	306.8806569547271	1072.439369135056	2115.976195432703	1141.027712170558	1181.988786493849	2015.421329254447	126.2442926746034	1058.074257275296	1960.402045381833	142.1031400708007	1158.788859317609	1997.192095336834	1125.900068619267	1055.1752256968	2006.833244558349	345.0368924923756	1136.634969504217	1984.27974487088	371.0219336575944	1098.452499260496	2060.328747101109	410.2536843224913	1147.57667009533	2032.288748138744	435.3179352164681	1109.496398303215	2223.006873935891	696.0420459373404	1176.504215401731	2171.726625002609	664.7563880699189	1134.610910311051	2159.500400201071	784.5979307115902	1184.298815459764	2109.718390045427	754.7134639169398	1145.775814706756	
1689	11.25333333333333	2164.036736139868	1055.441385421073	858.5141506867394	1688.994028933528	120.4720661254087	948.2824601637902	1713.629244184857	124.4515794886956	909.3007795881979	1713.464404747472	158.2940692457308	944.3050649083314	2113.736385615389	1156.633011119492	825.6333734303244	1898.25608931894	51.78552015043579	980.3796512348108	1852.946412040398	43.45458684234733	874.0413307961846	1999.088358063517	1137.956369523686	952.6769530176418	1823.834554642721	240.1687974303759	882.3206262969303	1786.483264372689	261.4170794832599	917.2055342241332	1851.283537879844	314.4497780078317	867.4288238128781	1814.594321667303	335.8040075516436	900.6445627100957	2031.697821528975	677.4993762473604	833.1269769157694	1968.908728393523	680.1125435012963	869.2530587006218	2026.658306433177	787.2785981112338	822.9795694984635	1969.533861606456	790.3191484004657	860.3752358792738	2167.184778570901	1057.130240255426	1139.885662928255	2039.741799533105	154.3728030155058	1105.514763629308	1873.368582817495	267.7934195258221	1060.806522559092	1896.309404185043	263.5044154165619	1106.769569797261	1913.636561488173	291.7340162948602	1071.228875846741	2117.177527124603	1148.214909954953	1182.414006475656	2041.099552673428	118.3279349985528	1058.198944391488	1984.371052394276	130.8299290813478	1158.235584225643	1998.815098777326	1132.116267799897	1055.193518655256	2019.255649902075	336.3879951810279	1135.798835814169	1995.560686994784	360.913981379417	1097.33119103884	2068.99041487285	404.5597491359736	1146.833875174312	2039.717589896011	427.897367581353	1108.499462616916	2224.228472785266	702.0329627128719	1176.141884961847	2172.505431709189	670.825204611828	1134.770660985807	2160.99547483202	790.7519742701684	1184.355393533161	2110.932664750317	761.0114725580185	1146.132383007705	
1690	11.26	2165.806130137273	1060.406301294737	859.2736207987348	1678.047522711005	130.8792619117611	946.4028167674261	1702.835327240952	133.1360631243052	907.3596352538364	1704.105113861436	167.4567328887843	941.853848435719	2116.973565257957	1163.060416276829	826.2917961956844	1884.195604592257	53.32168173140845	979.3766056832612	1838.482589776585	44.93406418705736	873.2953585231343	2001.289311984156	1143.612993160525	952.4162848457144	1813.499136600654	246.7665573818361	880.2229433856788	1776.525313065692	267.5649250065559	915.8509567742227	1840.657060780518	321.3453307855346	865.9720546079188	1804.472233027303	342.1941245287516	900.0085798126657	2024.22495778588	683.5312894199398	832.6818038910611	1962.003495560891	687.5700504482659	869.5620390241248	2021.793510519675	793.4480884179233	822.9706375804675	1965.252334463976	797.7965574916764	861.0822721145917	2168.851497604671	1063.665191567043	1139.866679515246	2063.215592235926	146.9385698134593	1105.654117929085	1890.778096330921	250.1706760788706	1059.251947489674	1913.453836621699	247.2324517346321	1105.445356085134	1929.427265010388	276.4680687830897	1070.036472074519	2118.361390462959	1155.318345146922	1182.823223595097	2067.271050323407	111.0737504527899	1058.517078718119	2008.972315071935	120.0207552243509	1157.822430006597	2000.49917698343	1138.167088054504	1055.205961669178	2032.027827255229	327.5834264290048	1135.047581973154	2007.299836706801	350.5670203350781	1096.256973820855	2077.760860265779	398.531627764952	1146.197930196633	2047.395608379269	420.0486880195861	1107.570884325958	2224.767947495954	707.4023809168632	1175.616627602529	2172.530049527835	676.3946155471878	1134.778252559937	2162.021061364517	796.4412969052529	1184.22022315683	2111.630670993643	766.9788753785906	1146.256957346646	
1691	11.26666666666667	2167.675998805819	1065.285099683128	860.1569029360973	1667.607662240703	141.5825586287833	944.597607052315	1692.412488828813	142.2101886686318	905.4723188299174	1695.201484965287	176.8772959728838	939.5007624777835	2120.296354236595	1169.253578592917	827.0566732112571	1870.57413224023	55.22852211865796	977.9962838760391	1824.215684321915	46.9699964487541	872.3056575058218	2003.514087677908	1149.042911822115	952.1850176811454	1803.713240205062	253.4421640834295	878.179074421737	1767.090084668298	273.8457421351818	914.4648709906883	1830.718933148423	328.2541242698557	864.5753026405739	1795.007820224255	348.6651616129167	899.3468512571285	2017.422721050191	689.4047557135444	832.2926636452115	1955.78244356947	694.7683234433051	869.8867587751009	2017.45136455983	799.4056896322684	822.9786804701142	1961.487039096076	804.9745011745657	861.7488043891516	2170.495585774438	1069.940850423983	1139.917977976816	2087.064286145098	140.0717788142159	1106.000851859402	1909.22827651	232.6284342229337	1057.70324624208	1931.504021205078	231.0307501237404	1104.145462258175	1946.058637988378	261.1983455199189	1068.87217121869	2119.546479183912	1162.247270251587	1183.19836046494	2093.880576119255	104.6085512459077	1059.047244508443	2034.1619938299	109.8079671552615	1157.575831541638	2002.226381694166	1143.996841601593	1055.219312956792	2045.150240084238	318.6984742288857	1134.3930909068	2019.502528550514	340.0760139858106	1095.24805178813	2086.653660014415	392.2148541750624	1145.680883960203	2055.35642666743	411.8379805700736	1106.725543298923	2224.598788375868	712.0776812989513	1174.940167014865	2171.787314515537	681.3914166241705	1134.628815928495	2162.549154816671	801.58403738614	1183.896876523738	2111.782805301604	772.5287706258972	1146.158852554605	
1692	11.27333333333333	2169.608729510568	1070.026781467058	861.1523181126327	1657.567337681147	152.5279744310167	942.9933145315953	1682.23453377117	151.6719282241142	903.7489609959663	1686.618017920831	186.5306333306724	937.3714722016024	2123.656351958351	1175.12561612238	827.925486648318	1857.315856386587	57.56302502978868	976.1587868707787	1810.034839768624	49.70673898693931	871.027867923193	2005.728281193574	1154.204598256084	951.9966322833465	1794.368416908054	260.2018761196202	876.2464707627726	1758.085798343641	280.2906583980353	913.1035865256107	1821.411038507952	335.1548338891021	863.2787995247827	1786.144427508084	355.2246340272902	898.6858279277192	2011.358892887764	695.0334549793218	831.9776141287282	1950.287349013443	701.6089453042113	870.2230643947075	2013.66588035302	805.0748887235629	823.0114760873616	1958.250101474469	811.7656533599564	862.3656046067681	2172.09474619297	1075.867550147796	1140.039853040777	2111.229635482637	133.8959667361271	1106.566823329323	1928.693705547252	215.3016641371373	1056.183143005207	1950.443447516519	215.0303447304489	1102.890701016046	1963.502579796085	246.0529620566773	1067.753901708285	2120.747230531918	1168.910749061325	1183.529401020182	2120.847885832985	99.06031561917212	1059.800621347273	2059.876862761762	100.3326192688991	1157.520455675276	2003.97764867453	1149.552056203055	1055.242206617322	2058.609831273943	309.822727913003	1133.845897825515	2032.157039355425	329.5508768641531	1094.322518156043	2095.675498878367	385.6713580713592	1145.290725310365	2063.620430082735	403.3489868466201	1105.974918767363	2223.704091201054	716.0021884320918	1174.140113576155	2170.281928432208	685.7554522664287	1134.325434386322	2162.55432234135	806.1089362406666	1183.40230262004	2111.369617649192	777.5810455961737	1145.857387601471	
1693	11.28	2171.565635382901	1074.574706939984	862.2397323708907	1647.804648898313	163.6712617093596	941.7203514418203	1672.169481433946	161.5252880883481	902.3058813892742	1678.212423903413	196.399581470881	935.5980993050125	2127.000854705628	1180.603935831232	828.8877721027574	1844.317208912864	60.37607543075259	973.8078290536683	1795.823402207334	53.28595698930639	869.4290939708906	2007.898343179508	1159.059628377648	951.8640641483604	1785.338677458166	267.0706649032533	874.4840983371304	1749.414474485558	286.9455511845302	911.8385989401057	1812.652132214071	342.0473536559225	862.1240740438199	1777.815619519364	361.8955764067116	898.0681191221003	2006.09717736486	700.340744147523	831.7446537325753	1945.556303821312	708.0025033871661	870.5592120874513	2010.467498160746	810.3887155192052	823.0711144756883	1955.550886408692	818.090901995619	862.9208489321516	2173.629931247509	1081.362528380805	1140.230126104277	2135.625421152779	128.5360908008706	1107.353108557018	1949.117496040779	198.3388644903898	1054.727023404526	1970.229146798788	199.3756880521104	1101.709735754124	1981.705864928938	231.1719266848195	1066.706905298402	2121.972258004626	1175.21867539677	1183.815433635582	2148.059632198166	94.55097665206468	1060.779527998711	2086.027909223496	91.74041546399786	1157.677389347267	2005.73284547644	1154.781132523108	1055.285574497191	2072.377617225464	301.0585539597366	1133.414727174655	2045.232539698012	319.1136846664787	1093.497979032429	2104.825266903297	378.9789627289243	1145.030476239519	2072.191948038869	394.6814355984741	1105.326983990453	2222.08314787122	719.1388595211265	1173.260320283182	2168.042245757788	689.4430978548203	1133.880638339079	2162.018267974072	809.9590980318005	1182.768389191821	2110.387168494927	782.0660942973848	1145.38197730314	
